<svg width="100%" viewBox="0 0 680 620" xmlns="http://www.w3.org/2000/svg" style="font-family:system-ui,sans-serif;background:#fff">
<defs>
<marker id="arrow" viewBox="0 0 10 10" refX="8" refY="5" markerWidth="6" markerHeight="6" orient="auto-start-reverse">
<path d="M2 1L8 5L2 9" fill="none" stroke="context-stroke" stroke-width="1.5" stroke-linecap="round" stroke-linejoin="round"/>
</marker>
</defs>

<!-- TITLE -->
<text font-size="14" font-weight="500" x="340" y="28" text-anchor="middle" fill="#1a1a1a">Communio — data architecture</text>

<!-- CORE PARISH RECORD -->
<rect x="210" y="50" width="260" height="90" rx="10" fill="#EEEDFE" stroke="#534AB7" stroke-width="0.5"/>
<text font-size="14" font-weight="500" x="340" y="82" text-anchor="middle" fill="#3C3489">Core parish record</text>
<text font-size="12" x="340" y="100" text-anchor="middle" fill="#534AB7">Name · location · contact · photo</text>
<text font-size="12" x="340" y="116" text-anchor="middle" fill="#534AB7">Focus tags · diocese · Stripe ID</text>
<text font-size="11" x="340" y="148" text-anchor="middle" fill="#888">Single source of truth · edited in Settings</text>

<!-- COMMUNIO PROFILE -->
<rect x="30" y="200" width="210" height="80" rx="10" fill="#E1F5EE" stroke="#0F6E56" stroke-width="0.5"/>
<text font-size="14" font-weight="500" x="135" y="230" text-anchor="middle" fill="#085041">Communio profile</text>
<text font-size="12" x="135" y="250" text-anchor="middle" fill="#0F6E56">Public within network</text>
<text font-size="12" x="135" y="266" text-anchor="middle" fill="#0F6E56">Feed · projects · parishes</text>

<!-- PARISH WEBSITE -->
<rect x="440" y="200" width="210" height="80" rx="10" fill="#FAECE7" stroke="#993C1D" stroke-width="0.5"/>
<text font-size="14" font-weight="500" x="545" y="230" text-anchor="middle" fill="#4A1B0C">Parish website</text>
<text font-size="12" x="545" y="250" text-anchor="middle" fill="#993C1D">Public to the world</text>
<text font-size="12" x="545" y="266" text-anchor="middle" fill="#993C1D">stmarysnyc.communio.org</text>

<!-- Arrows core → profile and core → website -->
<line x1="260" y1="140" x2="175" y2="198" stroke="#888" stroke-width="1" marker-end="url(#arrow)"/>
<line x1="420" y1="140" x2="505" y2="198" stroke="#888" stroke-width="1" marker-end="url(#arrow)"/>
<text font-size="11" x="192" y="172" text-anchor="middle" fill="#888">feeds into</text>
<text font-size="11" x="492" y="172" text-anchor="middle" fill="#888">feeds into</text>

<!-- DIVIDER 1 -->
<line x1="40" y1="320" x2="640" y2="320" stroke="#ddd" stroke-width="0.5" stroke-dasharray="4 4"/>
<text font-size="11" x="340" y="335" text-anchor="middle" fill="#888">Shared data — one source, shown in both places</text>

<!-- SHARED DATA PILLS -->
<rect x="40"  y="348" width="110" height="36" rx="8" fill="#FAEEDA" stroke="#BA7517" stroke-width="0.5"/>
<text font-size="12" x="95"  y="370" text-anchor="middle" fill="#854F0B">Hero photo</text>

<rect x="162" y="348" width="110" height="36" rx="8" fill="#FAEEDA" stroke="#BA7517" stroke-width="0.5"/>
<text font-size="12" x="217" y="370" text-anchor="middle" fill="#854F0B">Events</text>

<rect x="284" y="348" width="110" height="36" rx="8" fill="#FAEEDA" stroke="#BA7517" stroke-width="0.5"/>
<text font-size="12" x="339" y="370" text-anchor="middle" fill="#854F0B">Donations</text>

<rect x="406" y="348" width="110" height="36" rx="8" fill="#FAEEDA" stroke="#BA7517" stroke-width="0.5"/>
<text font-size="12" x="461" y="370" text-anchor="middle" fill="#854F0B">Analytics</text>

<rect x="528" y="348" width="110" height="36" rx="8" fill="#FAEEDA" stroke="#BA7517" stroke-width="0.5"/>
<text font-size="12" x="583" y="370" text-anchor="middle" fill="#854F0B">Contact info</text>

<!-- Lines from shared pills to profile and website -->
<line x1="95"  y1="348" x2="118" y2="282" stroke="#BA7517" stroke-width="0.5" marker-end="url(#arrow)"/>
<line x1="217" y1="348" x2="155" y2="282" stroke="#BA7517" stroke-width="0.5" marker-end="url(#arrow)"/>
<line x1="339" y1="348" x2="270" y2="282" stroke="#BA7517" stroke-width="0.5" marker-end="url(#arrow)"/>
<line x1="339" y1="348" x2="410" y2="282" stroke="#BA7517" stroke-width="0.5" marker-end="url(#arrow)"/>
<line x1="461" y1="348" x2="510" y2="282" stroke="#BA7517" stroke-width="0.5" marker-end="url(#arrow)"/>
<line x1="583" y1="348" x2="548" y2="282" stroke="#BA7517" stroke-width="0.5" marker-end="url(#arrow)"/>

<!-- DIVIDER 2 -->
<line x1="40" y1="418" x2="640" y2="418" stroke="#ddd" stroke-width="0.5" stroke-dasharray="4 4"/>
<text font-size="11" x="340" y="433" text-anchor="middle" fill="#888">Website-only — tabs on the website builder page</text>

<!-- WEBSITE TABS -->
<rect x="40"  y="446" width="106" height="50" rx="8" fill="#FAECE7" stroke="#993C1D" stroke-width="0.5"/>
<text font-size="14" font-weight="500" x="93"  y="468" text-anchor="middle" fill="#4A1B0C">Edit</text>
<text font-size="12" x="93"  y="484" text-anchor="middle" fill="#993C1D">Template + sections</text>

<rect x="158" y="446" width="106" height="50" rx="8" fill="#FAECE7" stroke="#993C1D" stroke-width="0.5"/>
<text font-size="14" font-weight="500" x="211" y="468" text-anchor="middle" fill="#4A1B0C">Analytics</text>
<text font-size="12" x="211" y="484" text-anchor="middle" fill="#993C1D">Traffic · sources</text>

<rect x="276" y="446" width="106" height="50" rx="8" fill="#FAECE7" stroke="#993C1D" stroke-width="0.5"/>
<text font-size="14" font-weight="500" x="329" y="468" text-anchor="middle" fill="#4A1B0C">Events</text>
<text font-size="12" x="329" y="484" text-anchor="middle" fill="#993C1D">Add · edit · remove</text>

<rect x="394" y="446" width="106" height="50" rx="8" fill="#FAECE7" stroke="#993C1D" stroke-width="0.5"/>
<text font-size="14" font-weight="500" x="447" y="468" text-anchor="middle" fill="#4A1B0C">SEO</text>
<text font-size="12" x="447" y="484" text-anchor="middle" fill="#993C1D">Title · meta · OG</text>

<rect x="512" y="446" width="128" height="50" rx="8" fill="#FAECE7" stroke="#993C1D" stroke-width="0.5"/>
<text font-size="14" font-weight="500" x="576" y="468" text-anchor="middle" fill="#4A1B0C">Settings</text>
<text font-size="12" x="576" y="484" text-anchor="middle" fill="#993C1D">Domain · history</text>

<!-- DIVIDER 3 -->
<line x1="40" y1="528" x2="640" y2="528" stroke="#ddd" stroke-width="0.5" stroke-dasharray="4 4"/>
<text font-size="11" x="340" y="543" text-anchor="middle" fill="#888">Profile-only — unique to the Communio network experience</text>

<!-- PROFILE-ONLY -->
<rect x="40"  y="556" width="140" height="44" rx="8" fill="#E1F5EE" stroke="#0F6E56" stroke-width="0.5"/>
<text font-size="14" font-weight="500" x="110" y="574" text-anchor="middle" fill="#085041">Activity feed</text>
<text font-size="12" x="110" y="590" text-anchor="middle" fill="#0F6E56">Posts · milestones</text>

<rect x="194" y="556" width="140" height="44" rx="8" fill="#E1F5EE" stroke="#0F6E56" stroke-width="0.5"/>
<text font-size="14" font-weight="500" x="264" y="574" text-anchor="middle" fill="#085041">Network</text>
<text font-size="12" x="264" y="590" text-anchor="middle" fill="#0F6E56">Sister parishes</text>

<rect x="348" y="556" width="140" height="44" rx="8" fill="#E1F5EE" stroke="#0F6E56" stroke-width="0.5"/>
<text font-size="14" font-weight="500" x="418" y="574" text-anchor="middle" fill="#085041">Projects</text>
<text font-size="12" x="418" y="590" text-anchor="middle" fill="#0F6E56">Co-signed advocacy</text>

<rect x="502" y="556" width="140" height="44" rx="8" fill="#E1F5EE" stroke="#0F6E56" stroke-width="0.5"/>
<text font-size="14" font-weight="500" x="572" y="574" text-anchor="middle" fill="#085041">Messaging</text>
<text font-size="12" x="572" y="590" text-anchor="middle" fill="#0F6E56">Parish-to-parish</text>

</svg>
